<?xml version="1.0" encoding="UTF-8"?>
<svg width="600px" height="600px" version="1.1" viewBox="0 0 752 752" xmlns="http://www.w3.org/2000/svg">
 <path d="m428.49 276.45c19.848 2.1016 32.875 6.6602 33.035 6.7148 1.5742 0.5625 3.3281-0.050781 4.2109-1.4727 17.473-25.215 24.863-58.902 89.887-67.039v-0.003907c1.4297-0.12891 2.6445-1.0977 3.082-2.4648 0.44141-1.3672 0.015625-2.8672-1.0703-3.8008-0.78906-0.66406-19.719-16.293-51.633-29.535-3.0586-1.293-6.457-1.5586-9.6797-0.75391-3.2188 0.80078-6.0977 2.625-8.1953 5.1992l-4.7461 5.7891 1.8711-14.672c0.22266-1.7266-0.83984-3.3555-2.5039-3.8555-61.742-18.48-123.39-9.8125-179.96 23.262-2.7422 1.582-4.9062 4.0039-6.1641 6.9102-1.2617 2.9062-1.5508 6.1406-0.83203 9.2227l1.2305 5.2852-8.8203-8.8125c-1.2148-1.2148-3.1211-1.3867-4.5352-0.41016-23.109 15.785-42.93 35.473-57.309 57.477-1.8789 2.9102-2.7773 6.3438-2.5586 9.7969 0.21484 3.457 1.5312 6.7539 3.7578 9.4062l9.3984 11.164-10.68-2.8242-0.003907-0.003906c-0.84766-0.24219-1.75-0.17188-2.5508 0.19922-1.5078 0.72266-2.3086 2.4023-1.9219 4.0312l1.2539 5.2539-11.184-2.8359c-1.7422-0.4375-3.5352 0.48828-4.1836 2.1602-10.695 27.66-15.523 58.648-14.418 92.234 0.046875 9.3672 0.82031 18.715 2.3125 27.961 5.3398 46.031 47.422 101.64 23.082 151.99-1.668 3.0898 2.2891 6.6094 5.1602 4.5273 35.793-23.039 35.906-83.895 27.625-111.08-4.4375-12.68 4.3711-19.652 4.7305-19.93 0.94531-0.70703 1.4766-1.8398 1.418-3.0195-1.1367-22.594 0.34766-72.102 29.57-111.18v-0.003906c2.4805-3.3672 6.8164-4.8047 10.816-3.582 7.8828 2.4609 13.055 12.719 7.8477 19.969-10.539 15.711-17.137 35.676-13.699 60.367l0.003906 0.003906c-3.0117 0.52734-5.6875 2.25-7.4141 4.7734-1.7266 2.5273-2.3633 5.6406-1.7656 8.6406l0.66797 3.3477c0.61719 3 2.4102 5.625 4.9844 7.2812s5.7031 2.207 8.6875 1.5273c4.5 21.691 15.293 63.234 12.191 71.039l-6.8242 2.5195c-5.4805 1.9492-8.5977 7.7266-7.2188 13.375 0.80078 3.0352 2.8438 5.5898 5.625 7.043 2.7852 1.4492 6.0508 1.6562 8.9961 0.57422l31.352-11.574c9.1836-3.4258 15.926-11.379 17.805-21 1.6641-8.6641 6.8828-28.816 19.336-28.816 1.668-0.042969 3.2656 0.68359 4.332 1.9688 5.5469 5.8711 8.6875 22.594 7.6406 40.652-0.51172 8.4023 1.9844 16.711 7.0391 23.438 11.355 14.992 38.301 42.422 91.176 57.664v0.003907c4.5195 1.2891 9.3555-0.39453 12.102-4.2031 2.7422-3.8125 2.8008-8.9375 0.14453-12.809-0.17188-0.25391-17.254-26.273-25.031-90.832-1.2812-10.547-6.8945-20.086-15.496-26.328-8.375-5.9688-16.227-12.641-23.477-19.941l38.562 2.6445c2.6367 4.1211 10.777 18.625 15.277 46.645h0.003906c0.097656 0.61719 0.35547 1.1953 0.75 1.6797 0.36719 0.45312 9.2734 11.121 32.902 15.059h-0.003907c1.4062 0.20703 2.8008-0.43359 3.5586-1.6367 0.75391-1.2031 0.72656-2.7422-0.070312-3.9141-0.25-0.35938-25.266-36.695-31.648-113.66-0.25391-3.0547-0.65234-6.1133-1.1836-9.1289h-0.003906c5.6328-2.375 9.0898-8.1055 8.5664-14.191-0.89453-9.3242-8.8828-13.473-17.602-13.023-12.012-23.762-33.809-41.09-59.672-47.434-3.4766-0.85938-6.4062-3.2031-8.0117-6.4062-1.6016-3.207-1.7188-6.957-0.32031-10.254 1.6406-4.2227 5.8945-6.8281 10.398-6.375zm50.293 140.57-63.945-4.3867c-8.1445-0.82422-14.535 8.4297-10.875 15.766 8.3594 18.113 28.242 35.035 43.449 46.039v-0.003907c3.5781 2.6016 5.9141 6.5703 6.4453 10.957 4.1875 34.754 10.93 59.207 16.703 75.082-29.125-12.695-58.586-36.785-57.812-49.723 1.7031-18.395-1.9258-72.715-40.684-65.578l0.039062-0.015624c-12.613 0.94531-21.664 4.8555-27.523 8.4805v0.003906c-2.0391 1.2695-4.5586 1.4961-6.7891 0.60547-2.2305-0.89062-3.9062-2.7891-4.5078-5.1133l-3.8672-14.969c9.6797-3.8125 27.738-11.582 36.504-19.617 12.266-11.242 39.281-26.566 39.48-26.68 22.297-8.5781 47.672-14.215 82.699-12.66 0.51562 7.8633 1.3242 15.668 2.3672 23.312-0.046875 19.57-11.68 18.5-11.68 18.5zm11.367-62.746c8.9492 0.74219 8.3516 13.934-0.63672 13.863-25.125-0.78125-73.184 1.3242-112.75 24.309-7.5469 4.3828-14.754 8.2422-21.578 11.648-11.176 4.875-13.488-4.9688-7.6797-11.582l-0.019531 0.007813c6.9062-3.6719 14.43-7.8906 22.617-12.77 45.473-27.086 99.102-26.84 120.05-25.477zm-20.535-19.617c3.1094 3.7695 5.8906 7.8047 8.3008 12.059-76.121-1.8555-105.82 27.582-156.73 50.504-16.633-103.29 107.32-116.33 148.43-62.562zm-219.2 106.49c-4.5469 4.3555-10.125 13.973-5.6758 26.684 4.8711 15.312 6.3477 45.094-1.2852 69.305-7.2812-2.7461-7.2227-12.438-7.043-17.828v0.011719h-0.003906c0.44922-16.34-0.93359-32.68-4.1289-48.711-30.18-144.26 93.043-266.77 243.43-218.51l-14.547 23.488c-121.66-33.059-218.95 48.297-210.75 165.56z"/>
</svg>
